<?xml version="1.0" encoding="utf-8" standalone="no"?>
<!DOCTYPE svg PUBLIC "-//W3C//DTD SVG 1.1//EN"
  "http://www.w3.org/Graphics/SVG/1.1/DTD/svg11.dtd">
<!-- Created with matplotlib (https://matplotlib.org/) -->
<svg height="576pt" version="1.1" viewBox="0 0 576 576" width="576pt" xmlns="http://www.w3.org/2000/svg" xmlns:xlink="http://www.w3.org/1999/xlink">
 <defs>
  <style type="text/css">
*{stroke-linecap:butt;stroke-linejoin:round;}
  </style>
 </defs>
 <g id="figure_1">
  <g id="patch_1">
   <path d="M 0 576 
L 576 576 
L 576 0 
L 0 0 
z
" style="fill:#ffffff;"/>
  </g>
  <g id="axes_1">
   <g id="patch_2">
    <path d="M 72 504 
L 518.4 504 
L 518.4 69.12 
L 72 69.12 
z
" style="fill:#ffffff;"/>
   </g>
   <g id="QuadMesh_1">
    <path clip-path="url(#pa050dfdbc2)" d="M 72 69.12 
L 96.8 69.12 
L 96.8 93.28 
L 72 93.28 
L 72 69.12 
" style="fill:#f7eeee;"/>
    <path clip-path="url(#pa050dfdbc2)" d="M 96.8 69.12 
L 121.6 69.12 
L 121.6 93.28 
L 96.8 93.28 
L 96.8 69.12 
" style="fill:#eea4a4;"/>
    <path clip-path="url(#pa050dfdbc2)" d="M 121.6 69.12 
L 146.4 69.12 
L 146.4 93.28 
L 121.6 93.28 
L 121.6 69.12 
" style="fill:#f1b3b3;"/>
    <path clip-path="url(#pa050dfdbc2)" d="M 146.4 69.12 
L 171.2 69.12 
L 171.2 93.28 
L 146.4 93.28 
L 146.4 69.12 
" style="fill:#efa8a8;"/>
    <path clip-path="url(#pa050dfdbc2)" d="M 171.2 69.12 
L 196 69.12 
L 196 93.28 
L 171.2 93.28 
L 171.2 69.12 
" style="fill:#e9f0f7;"/>
    <path clip-path="url(#pa050dfdbc2)" d="M 196 69.12 
L 220.8 69.12 
L 220.8 93.28 
L 196 93.28 
L 196 69.12 
" style="fill:#f4c5c5;"/>
    <path clip-path="url(#pa050dfdbc2)" d="M 220.8 69.12 
L 245.6 69.12 
L 245.6 93.28 
L 220.8 93.28 
L 220.8 69.12 
" style="fill:#b9cde4;"/>
    <path clip-path="url(#pa050dfdbc2)" d="M 245.6 69.12 
L 270.4 69.12 
L 270.4 93.28 
L 245.6 93.28 
L 245.6 69.12 
" style="fill:#c7d7e9;"/>
    <path clip-path="url(#pa050dfdbc2)" d="M 270.4 69.12 
L 295.2 69.12 
L 295.2 93.28 
L 270.4 93.28 
L 270.4 69.12 
" style="fill:#f3c0c0;"/>
    <path clip-path="url(#pa050dfdbc2)" d="M 295.2 69.12 
L 320 69.12 
L 320 93.28 
L 295.2 93.28 
L 295.2 69.12 
" style="fill:#f7eeee;"/>
    <path clip-path="url(#pa050dfdbc2)" d="M 320 69.12 
L 344.8 69.12 
L 344.8 93.28 
L 320 93.28 
L 320 69.12 
" style="fill:#eea4a4;"/>
    <path clip-path="url(#pa050dfdbc2)" d="M 344.8 69.12 
L 369.6 69.12 
L 369.6 93.28 
L 344.8 93.28 
L 344.8 69.12 
" style="fill:#f1b3b3;"/>
    <path clip-path="url(#pa050dfdbc2)" d="M 369.6 69.12 
L 394.4 69.12 
L 394.4 93.28 
L 369.6 93.28 
L 369.6 69.12 
" style="fill:#efa8a8;"/>
    <path clip-path="url(#pa050dfdbc2)" d="M 394.4 69.12 
L 419.2 69.12 
L 419.2 93.28 
L 394.4 93.28 
L 394.4 69.12 
" style="fill:#e9f0f7;"/>
    <path clip-path="url(#pa050dfdbc2)" d="M 419.2 69.12 
L 444 69.12 
L 444 93.28 
L 419.2 93.28 
L 419.2 69.12 
" style="fill:#f4c5c5;"/>
    <path clip-path="url(#pa050dfdbc2)" d="M 444 69.12 
L 468.8 69.12 
L 468.8 93.28 
L 444 93.28 
L 444 69.12 
" style="fill:#b9cde4;"/>
    <path clip-path="url(#pa050dfdbc2)" d="M 468.8 69.12 
L 493.6 69.12 
L 493.6 93.28 
L 468.8 93.28 
L 468.8 69.12 
" style="fill:#c7d7e9;"/>
    <path clip-path="url(#pa050dfdbc2)" d="M 493.6 69.12 
L 518.4 69.12 
L 518.4 93.28 
L 493.6 93.28 
L 493.6 69.12 
" style="fill:#f3c0c0;"/>
    <path clip-path="url(#pa050dfdbc2)" d="M 72 93.28 
L 96.8 93.28 
L 96.8 117.44 
L 72 117.44 
L 72 93.28 
" style="fill:#eea4a4;"/>
    <path clip-path="url(#pa050dfdbc2)" d="M 96.8 93.28 
L 121.6 93.28 
L 121.6 117.44 
L 96.8 117.44 
L 96.8 93.28 
" style="fill:#f7eeee;"/>
    <path clip-path="url(#pa050dfdbc2)" d="M 121.6 93.28 
L 146.4 93.28 
L 146.4 117.44 
L 121.6 117.44 
L 121.6 93.28 
" style="fill:#e4696a;"/>
    <path clip-path="url(#pa050dfdbc2)" d="M 146.4 93.28 
L 171.2 93.28 
L 171.2 117.44 
L 146.4 117.44 
L 146.4 93.28 
" style="fill:#ec9696;"/>
    <path clip-path="url(#pa050dfdbc2)" d="M 171.2 93.28 
L 196 93.28 
L 196 117.44 
L 171.2 117.44 
L 171.2 93.28 
" style="fill:#d4e1ef;"/>
    <path clip-path="url(#pa050dfdbc2)" d="M 196 93.28 
L 220.8 93.28 
L 220.8 117.44 
L 196 117.44 
L 196 93.28 
" style="fill:#fae6e6;"/>
    <path clip-path="url(#pa050dfdbc2)" d="M 220.8 93.28 
L 245.6 93.28 
L 245.6 117.44 
L 220.8 117.44 
L 220.8 93.28 
" style="fill:#f2b9ba;"/>
    <path clip-path="url(#pa050dfdbc2)" d="M 245.6 93.28 
L 270.4 93.28 
L 270.4 117.44 
L 245.6 117.44 
L 245.6 93.28 
" style="fill:#f9dfdf;"/>
    <path clip-path="url(#pa050dfdbc2)" d="M 270.4 93.28 
L 295.2 93.28 
L 295.2 117.44 
L 270.4 117.44 
L 270.4 93.28 
" style="fill:#e0e9f3;"/>
    <path clip-path="url(#pa050dfdbc2)" d="M 295.2 93.28 
L 320 93.28 
L 320 117.44 
L 295.2 117.44 
L 295.2 93.28 
" style="fill:#eea4a4;"/>
    <path clip-path="url(#pa050dfdbc2)" d="M 320 93.28 
L 344.8 93.28 
L 344.8 117.44 
L 320 117.44 
L 320 93.28 
" style="fill:#f7eeee;"/>
    <path clip-path="url(#pa050dfdbc2)" d="M 344.8 93.28 
L 369.6 93.28 
L 369.6 117.44 
L 344.8 117.44 
L 344.8 93.28 
" style="fill:#e4696a;"/>
    <path clip-path="url(#pa050dfdbc2)" d="M 369.6 93.28 
L 394.4 93.28 
L 394.4 117.44 
L 369.6 117.44 
L 369.6 93.28 
" style="fill:#ec9696;"/>
    <path clip-path="url(#pa050dfdbc2)" d="M 394.4 93.28 
L 419.2 93.28 
L 419.2 117.44 
L 394.4 117.44 
L 394.4 93.28 
" style="fill:#d4e1ef;"/>
    <path clip-path="url(#pa050dfdbc2)" d="M 419.2 93.28 
L 444 93.28 
L 444 117.44 
L 419.2 117.44 
L 419.2 93.28 
" style="fill:#fae6e6;"/>
    <path clip-path="url(#pa050dfdbc2)" d="M 444 93.28 
L 468.8 93.28 
L 468.8 117.44 
L 444 117.44 
L 444 93.28 
" style="fill:#f2b9ba;"/>
    <path clip-path="url(#pa050dfdbc2)" d="M 468.8 93.28 
L 493.6 93.28 
L 493.6 117.44 
L 468.8 117.44 
L 468.8 93.28 
" style="fill:#f9dfdf;"/>
    <path clip-path="url(#pa050dfdbc2)" d="M 493.6 93.28 
L 518.4 93.28 
L 518.4 117.44 
L 493.6 117.44 
L 493.6 93.28 
" style="fill:#e0e9f3;"/>
    <path clip-path="url(#pa050dfdbc2)" d="M 72 117.44 
L 96.8 117.44 
L 96.8 141.6 
L 72 141.6 
L 72 117.44 
" style="fill:#f1b3b3;"/>
    <path clip-path="url(#pa050dfdbc2)" d="M 96.8 117.44 
L 121.6 117.44 
L 121.6 141.6 
L 96.8 141.6 
L 96.8 117.44 
" style="fill:#e4696a;"/>
    <path clip-path="url(#pa050dfdbc2)" d="M 121.6 117.44 
L 146.4 117.44 
L 146.4 141.6 
L 121.6 141.6 
L 121.6 117.44 
" style="fill:#f7eeee;"/>
    <path clip-path="url(#pa050dfdbc2)" d="M 146.4 117.44 
L 171.2 117.44 
L 171.2 141.6 
L 146.4 141.6 
L 146.4 117.44 
" style="fill:#f1b3b3;"/>
    <path clip-path="url(#pa050dfdbc2)" d="M 171.2 117.44 
L 196 117.44 
L 196 141.6 
L 171.2 141.6 
L 171.2 117.44 
" style="fill:#f3c0c0;"/>
    <path clip-path="url(#pa050dfdbc2)" d="M 196 117.44 
L 220.8 117.44 
L 220.8 141.6 
L 196 141.6 
L 196 117.44 
" style="fill:#f7d3d3;"/>
    <path clip-path="url(#pa050dfdbc2)" d="M 220.8 117.44 
L 245.6 117.44 
L 245.6 141.6 
L 220.8 141.6 
L 220.8 117.44 
" style="fill:#d5e2ef;"/>
    <path clip-path="url(#pa050dfdbc2)" d="M 245.6 117.44 
L 270.4 117.44 
L 270.4 141.6 
L 245.6 141.6 
L 245.6 117.44 
" style="fill:#f9dfdf;"/>
    <path clip-path="url(#pa050dfdbc2)" d="M 270.4 117.44 
L 295.2 117.44 
L 295.2 141.6 
L 270.4 141.6 
L 270.4 117.44 
" style="fill:#f3bebe;"/>
    <path clip-path="url(#pa050dfdbc2)" d="M 295.2 117.44 
L 320 117.44 
L 320 141.6 
L 295.2 141.6 
L 295.2 117.44 
" style="fill:#f1b3b3;"/>
    <path clip-path="url(#pa050dfdbc2)" d="M 320 117.44 
L 344.8 117.44 
L 344.8 141.6 
L 320 141.6 
L 320 117.44 
" style="fill:#e4696a;"/>
    <path clip-path="url(#pa050dfdbc2)" d="M 344.8 117.44 
L 369.6 117.44 
L 369.6 141.6 
L 344.8 141.6 
L 344.8 117.44 
" style="fill:#f7eeee;"/>
    <path clip-path="url(#pa050dfdbc2)" d="M 369.6 117.44 
L 394.4 117.44 
L 394.4 141.6 
L 369.6 141.6 
L 369.6 117.44 
" style="fill:#f1b3b3;"/>
    <path clip-path="url(#pa050dfdbc2)" d="M 394.4 117.44 
L 419.2 117.44 
L 419.2 141.6 
L 394.4 141.6 
L 394.4 117.44 
" style="fill:#f3c0c0;"/>
    <path clip-path="url(#pa050dfdbc2)" d="M 419.2 117.44 
L 444 117.44 
L 444 141.6 
L 419.2 141.6 
L 419.2 117.44 
" style="fill:#f7d3d3;"/>
    <path clip-path="url(#pa050dfdbc2)" d="M 444 117.44 
L 468.8 117.44 
L 468.8 141.6 
L 444 141.6 
L 444 117.44 
" style="fill:#d5e2ef;"/>
    <path clip-path="url(#pa050dfdbc2)" d="M 468.8 117.44 
L 493.6 117.44 
L 493.6 141.6 
L 468.8 141.6 
L 468.8 117.44 
" style="fill:#f9dfdf;"/>
    <path clip-path="url(#pa050dfdbc2)" d="M 493.6 117.44 
L 518.4 117.44 
L 518.4 141.6 
L 493.6 141.6 
L 493.6 117.44 
" style="fill:#f3bebe;"/>
    <path clip-path="url(#pa050dfdbc2)" d="M 72 141.6 
L 96.8 141.6 
L 96.8 165.76 
L 72 165.76 
L 72 141.6 
" style="fill:#efa8a8;"/>
    <path clip-path="url(#pa050dfdbc2)" d="M 96.8 141.6 
L 121.6 141.6 
L 121.6 165.76 
L 96.8 165.76 
L 96.8 141.6 
" style="fill:#ec9696;"/>
    <path clip-path="url(#pa050dfdbc2)" d="M 121.6 141.6 
L 146.4 141.6 
L 146.4 165.76 
L 121.6 165.76 
L 121.6 141.6 
" style="fill:#f1b3b3;"/>
    <path clip-path="url(#pa050dfdbc2)" d="M 146.4 141.6 
L 171.2 141.6 
L 171.2 165.76 
L 146.4 165.76 
L 146.4 141.6 
" style="fill:#f7eeee;"/>
    <path clip-path="url(#pa050dfdbc2)" d="M 171.2 141.6 
L 196 141.6 
L 196 165.76 
L 171.2 165.76 
L 171.2 141.6 
" style="fill:#e98585;"/>
    <path clip-path="url(#pa050dfdbc2)" d="M 196 141.6 
L 220.8 141.6 
L 220.8 165.76 
L 196 165.76 
L 196 141.6 
" style="fill:#f8dada;"/>
    <path clip-path="url(#pa050dfdbc2)" d="M 220.8 141.6 
L 245.6 141.6 
L 245.6 165.76 
L 220.8 165.76 
L 220.8 141.6 
" style="fill:#f6cdce;"/>
    <path clip-path="url(#pa050dfdbc2)" d="M 245.6 141.6 
L 270.4 141.6 
L 270.4 165.76 
L 245.6 165.76 
L 245.6 141.6 
" style="fill:#f9dfdf;"/>
    <path clip-path="url(#pa050dfdbc2)" d="M 270.4 141.6 
L 295.2 141.6 
L 295.2 165.76 
L 270.4 165.76 
L 270.4 141.6 
" style="fill:#9ab8d8;"/>
    <path clip-path="url(#pa050dfdbc2)" d="M 295.2 141.6 
L 320 141.6 
L 320 165.76 
L 295.2 165.76 
L 295.2 141.6 
" style="fill:#efa8a8;"/>
    <path clip-path="url(#pa050dfdbc2)" d="M 320 141.6 
L 344.8 141.6 
L 344.8 165.76 
L 320 165.76 
L 320 141.6 
" style="fill:#ec9696;"/>
    <path clip-path="url(#pa050dfdbc2)" d="M 344.8 141.6 
L 369.6 141.6 
L 369.6 165.76 
L 344.8 165.76 
L 344.8 141.6 
" style="fill:#f1b3b3;"/>
    <path clip-path="url(#pa050dfdbc2)" d="M 369.6 141.6 
L 394.4 141.6 
L 394.4 165.76 
L 369.6 165.76 
L 369.6 141.6 
" style="fill:#f7eeee;"/>
    <path clip-path="url(#pa050dfdbc2)" d="M 394.4 141.6 
L 419.2 141.6 
L 419.2 165.76 
L 394.4 165.76 
L 394.4 141.6 
" style="fill:#e98585;"/>
    <path clip-path="url(#pa050dfdbc2)" d="M 419.2 141.6 
L 444 141.6 
L 444 165.76 
L 419.2 165.76 
L 419.2 141.6 
" style="fill:#f8dada;"/>
    <path clip-path="url(#pa050dfdbc2)" d="M 444 141.6 
L 468.8 141.6 
L 468.8 165.76 
L 444 165.76 
L 444 141.6 
" style="fill:#f6cdce;"/>
    <path clip-path="url(#pa050dfdbc2)" d="M 468.8 141.6 
L 493.6 141.6 
L 493.6 165.76 
L 468.8 165.76 
L 468.8 141.6 
" style="fill:#f9dfdf;"/>
    <path clip-path="url(#pa050dfdbc2)" d="M 493.6 141.6 
L 518.4 141.6 
L 518.4 165.76 
L 493.6 165.76 
L 493.6 141.6 
" style="fill:#9ab8d8;"/>
    <path clip-path="url(#pa050dfdbc2)" d="M 72 165.76 
L 96.8 165.76 
L 96.8 189.92 
L 72 189.92 
L 72 165.76 
" style="fill:#e9f0f7;"/>
    <path clip-path="url(#pa050dfdbc2)" d="M 96.8 165.76 
L 121.6 165.76 
L 121.6 189.92 
L 96.8 189.92 
L 96.8 165.76 
" style="fill:#d4e1ef;"/>
    <path clip-path="url(#pa050dfdbc2)" d="M 121.6 165.76 
L 146.4 165.76 
L 146.4 189.92 
L 121.6 189.92 
L 121.6 165.76 
" style="fill:#f3c0c0;"/>
    <path clip-path="url(#pa050dfdbc2)" d="M 146.4 165.76 
L 171.2 165.76 
L 171.2 189.92 
L 146.4 189.92 
L 146.4 165.76 
" style="fill:#e98585;"/>
    <path clip-path="url(#pa050dfdbc2)" d="M 171.2 165.76 
L 196 165.76 
L 196 189.92 
L 171.2 189.92 
L 171.2 165.76 
" style="fill:#f7eeee;"/>
    <path clip-path="url(#pa050dfdbc2)" d="M 196 165.76 
L 220.8 165.76 
L 220.8 189.92 
L 196 189.92 
L 196 165.76 
" style="fill:#f2b5b6;"/>
    <path clip-path="url(#pa050dfdbc2)" d="M 220.8 165.76 
L 245.6 165.76 
L 245.6 189.92 
L 220.8 189.92 
L 220.8 165.76 
" style="fill:#ed9e9f;"/>
    <path clip-path="url(#pa050dfdbc2)" d="M 245.6 165.76 
L 270.4 165.76 
L 270.4 189.92 
L 245.6 189.92 
L 245.6 165.76 
" style="fill:#f7d3d3;"/>
    <path clip-path="url(#pa050dfdbc2)" d="M 270.4 165.76 
L 295.2 165.76 
L 295.2 189.92 
L 270.4 189.92 
L 270.4 165.76 
" style="fill:#f6cfcf;"/>
    <path clip-path="url(#pa050dfdbc2)" d="M 295.2 165.76 
L 320 165.76 
L 320 189.92 
L 295.2 189.92 
L 295.2 165.76 
" style="fill:#e9f0f7;"/>
    <path clip-path="url(#pa050dfdbc2)" d="M 320 165.76 
L 344.8 165.76 
L 344.8 189.92 
L 320 189.92 
L 320 165.76 
" style="fill:#d4e1ef;"/>
    <path clip-path="url(#pa050dfdbc2)" d="M 344.8 165.76 
L 369.6 165.76 
L 369.6 189.92 
L 344.8 189.92 
L 344.8 165.76 
" style="fill:#f3c0c0;"/>
    <path clip-path="url(#pa050dfdbc2)" d="M 369.6 165.76 
L 394.4 165.76 
L 394.4 189.92 
L 369.6 189.92 
L 369.6 165.76 
" style="fill:#e98585;"/>
    <path clip-path="url(#pa050dfdbc2)" d="M 394.4 165.76 
L 419.2 165.76 
L 419.2 189.92 
L 394.4 189.92 
L 394.4 165.76 
" style="fill:#f7eeee;"/>
    <path clip-path="url(#pa050dfdbc2)" d="M 419.2 165.76 
L 444 165.76 
L 444 189.92 
L 419.2 189.92 
L 419.2 165.76 
" style="fill:#f2b5b6;"/>
    <path clip-path="url(#pa050dfdbc2)" d="M 444 165.76 
L 468.8 165.76 
L 468.8 189.92 
L 444 189.92 
L 444 165.76 
" style="fill:#ed9e9f;"/>
    <path clip-path="url(#pa050dfdbc2)" d="M 468.8 165.76 
L 493.6 165.76 
L 493.6 189.92 
L 468.8 189.92 
L 468.8 165.76 
" style="fill:#f7d3d3;"/>
    <path clip-path="url(#pa050dfdbc2)" d="M 493.6 165.76 
L 518.4 165.76 
L 518.4 189.92 
L 493.6 189.92 
L 493.6 165.76 
" style="fill:#f6cfcf;"/>
    <path clip-path="url(#pa050dfdbc2)" d="M 72 189.92 
L 96.8 189.92 
L 96.8 214.08 
L 72 214.08 
L 72 189.92 
" style="fill:#f4c5c5;"/>
    <path clip-path="url(#pa050dfdbc2)" d="M 96.8 189.92 
L 121.6 189.92 
L 121.6 214.08 
L 96.8 214.08 
L 96.8 189.92 
" style="fill:#fae6e6;"/>
    <path clip-path="url(#pa050dfdbc2)" d="M 121.6 189.92 
L 146.4 189.92 
L 146.4 214.08 
L 121.6 214.08 
L 121.6 189.92 
" style="fill:#f7d3d3;"/>
    <path clip-path="url(#pa050dfdbc2)" d="M 146.4 189.92 
L 171.2 189.92 
L 171.2 214.08 
L 146.4 214.08 
L 146.4 189.92 
" style="fill:#f8dada;"/>
    <path clip-path="url(#pa050dfdbc2)" d="M 171.2 189.92 
L 196 189.92 
L 196 214.08 
L 171.2 214.08 
L 171.2 189.92 
" style="fill:#f2b5b6;"/>
    <path clip-path="url(#pa050dfdbc2)" d="M 196 189.92 
L 220.8 189.92 
L 220.8 214.08 
L 196 214.08 
L 196 189.92 
" style="fill:#f7eeee;"/>
    <path clip-path="url(#pa050dfdbc2)" d="M 220.8 189.92 
L 245.6 189.92 
L 245.6 214.08 
L 220.8 214.08 
L 220.8 189.92 
" style="fill:#e88283;"/>
    <path clip-path="url(#pa050dfdbc2)" d="M 245.6 189.92 
L 270.4 189.92 
L 270.4 214.08 
L 245.6 214.08 
L 245.6 189.92 
" style="fill:#f6d0d0;"/>
    <path clip-path="url(#pa050dfdbc2)" d="M 270.4 189.92 
L 295.2 189.92 
L 295.2 214.08 
L 270.4 214.08 
L 270.4 189.92 
" style="fill:#f5c9ca;"/>
    <path clip-path="url(#pa050dfdbc2)" d="M 295.2 189.92 
L 320 189.92 
L 320 214.08 
L 295.2 214.08 
L 295.2 189.92 
" style="fill:#f4c5c5;"/>
    <path clip-path="url(#pa050dfdbc2)" d="M 320 189.92 
L 344.8 189.92 
L 344.8 214.08 
L 320 214.08 
L 320 189.92 
" style="fill:#fae6e6;"/>
    <path clip-path="url(#pa050dfdbc2)" d="M 344.8 189.92 
L 369.6 189.92 
L 369.6 214.08 
L 344.8 214.08 
L 344.8 189.92 
" style="fill:#f7d3d3;"/>
    <path clip-path="url(#pa050dfdbc2)" d="M 369.6 189.92 
L 394.4 189.92 
L 394.4 214.08 
L 369.6 214.08 
L 369.6 189.92 
" style="fill:#f8dada;"/>
    <path clip-path="url(#pa050dfdbc2)" d="M 394.4 189.92 
L 419.2 189.92 
L 419.2 214.08 
L 394.4 214.08 
L 394.4 189.92 
" style="fill:#f2b5b6;"/>
    <path clip-path="url(#pa050dfdbc2)" d="M 419.2 189.92 
L 444 189.92 
L 444 214.08 
L 419.2 214.08 
L 419.2 189.92 
" style="fill:#f7eeee;"/>
    <path clip-path="url(#pa050dfdbc2)" d="M 444 189.92 
L 468.8 189.92 
L 468.8 214.08 
L 444 214.08 
L 444 189.92 
" style="fill:#e88283;"/>
    <path clip-path="url(#pa050dfdbc2)" d="M 468.8 189.92 
L 493.6 189.92 
L 493.6 214.08 
L 468.8 214.08 
L 468.8 189.92 
" style="fill:#f6d0d0;"/>
    <path clip-path="url(#pa050dfdbc2)" d="M 493.6 189.92 
L 518.4 189.92 
L 518.4 214.08 
L 493.6 214.08 
L 493.6 189.92 
" style="fill:#f5c9ca;"/>
    <path clip-path="url(#pa050dfdbc2)" d="M 72 214.08 
L 96.8 214.08 
L 96.8 238.24 
L 72 238.24 
L 72 214.08 
" style="fill:#b9cde4;"/>
    <path clip-path="url(#pa050dfdbc2)" d="M 96.8 214.08 
L 121.6 214.08 
L 121.6 238.24 
L 96.8 238.24 
L 96.8 214.08 
" style="fill:#f2b9ba;"/>
    <path clip-path="url(#pa050dfdbc2)" d="M 121.6 214.08 
L 146.4 214.08 
L 146.4 238.24 
L 121.6 238.24 
L 121.6 214.08 
" style="fill:#d5e2ef;"/>
    <path clip-path="url(#pa050dfdbc2)" d="M 146.4 214.08 
L 171.2 214.08 
L 171.2 238.24 
L 146.4 238.24 
L 146.4 214.08 
" style="fill:#f6cdce;"/>
    <path clip-path="url(#pa050dfdbc2)" d="M 171.2 214.08 
L 196 214.08 
L 196 238.24 
L 171.2 238.24 
L 171.2 214.08 
" style="fill:#ed9e9f;"/>
    <path clip-path="url(#pa050dfdbc2)" d="M 196 214.08 
L 220.8 214.08 
L 220.8 238.24 
L 196 238.24 
L 196 214.08 
" style="fill:#e88283;"/>
    <path clip-path="url(#pa050dfdbc2)" d="M 220.8 214.08 
L 245.6 214.08 
L 245.6 238.24 
L 220.8 238.24 
L 220.8 214.08 
" style="fill:#f7eeee;"/>
    <path clip-path="url(#pa050dfdbc2)" d="M 245.6 214.08 
L 270.4 214.08 
L 270.4 238.24 
L 245.6 238.24 
L 245.6 214.08 
" style="fill:#f3c0c0;"/>
    <path clip-path="url(#pa050dfdbc2)" d="M 270.4 214.08 
L 295.2 214.08 
L 295.2 238.24 
L 270.4 238.24 
L 270.4 214.08 
" style="fill:#ed9d9d;"/>
    <path clip-path="url(#pa050dfdbc2)" d="M 295.2 214.08 
L 320 214.08 
L 320 238.24 
L 295.2 238.24 
L 295.2 214.08 
" style="fill:#b9cde4;"/>
    <path clip-path="url(#pa050dfdbc2)" d="M 320 214.08 
L 344.8 214.08 
L 344.8 238.24 
L 320 238.24 
L 320 214.08 
" style="fill:#f2b9ba;"/>
    <path clip-path="url(#pa050dfdbc2)" d="M 344.8 214.08 
L 369.6 214.08 
L 369.6 238.24 
L 344.8 238.24 
L 344.8 214.08 
" style="fill:#d5e2ef;"/>
    <path clip-path="url(#pa050dfdbc2)" d="M 369.6 214.08 
L 394.4 214.08 
L 394.4 238.24 
L 369.6 238.24 
L 369.6 214.08 
" style="fill:#f6cdce;"/>
    <path clip-path="url(#pa050dfdbc2)" d="M 394.4 214.08 
L 419.2 214.08 
L 419.2 238.24 
L 394.4 238.24 
L 394.4 214.08 
" style="fill:#ed9e9f;"/>
    <path clip-path="url(#pa050dfdbc2)" d="M 419.2 214.08 
L 444 214.08 
L 444 238.24 
L 419.2 238.24 
L 419.2 214.08 
" style="fill:#e88283;"/>
    <path clip-path="url(#pa050dfdbc2)" d="M 444 214.08 
L 468.8 214.08 
L 468.8 238.24 
L 444 238.24 
L 444 214.08 
" style="fill:#f7eeee;"/>
    <path clip-path="url(#pa050dfdbc2)" d="M 468.8 214.08 
L 493.6 214.08 
L 493.6 238.24 
L 468.8 238.24 
L 468.8 214.08 
" style="fill:#f3c0c0;"/>
    <path clip-path="url(#pa050dfdbc2)" d="M 493.6 214.08 
L 518.4 214.08 
L 518.4 238.24 
L 493.6 238.24 
L 493.6 214.08 
" style="fill:#ed9d9d;"/>
    <path clip-path="url(#pa050dfdbc2)" d="M 72 238.24 
L 96.8 238.24 
L 96.8 262.4 
L 72 262.4 
L 72 238.24 
" style="fill:#c7d7e9;"/>
    <path clip-path="url(#pa050dfdbc2)" d="M 96.8 238.24 
L 121.6 238.24 
L 121.6 262.4 
L 96.8 262.4 
L 96.8 238.24 
" style="fill:#f9dfdf;"/>
    <path clip-path="url(#pa050dfdbc2)" d="M 121.6 238.24 
L 146.4 238.24 
L 146.4 262.4 
L 121.6 262.4 
L 121.6 238.24 
" style="fill:#f9dfdf;"/>
    <path clip-path="url(#pa050dfdbc2)" d="M 146.4 238.24 
L 171.2 238.24 
L 171.2 262.4 
L 146.4 262.4 
L 146.4 238.24 
" style="fill:#f9dfdf;"/>
    <path clip-path="url(#pa050dfdbc2)" d="M 171.2 238.24 
L 196 238.24 
L 196 262.4 
L 171.2 262.4 
L 171.2 238.24 
" style="fill:#f7d3d3;"/>
    <path clip-path="url(#pa050dfdbc2)" d="M 196 238.24 
L 220.8 238.24 
L 220.8 262.4 
L 196 262.4 
L 196 238.24 
" style="fill:#f6d0d0;"/>
    <path clip-path="url(#pa050dfdbc2)" d="M 220.8 238.24 
L 245.6 238.24 
L 245.6 262.4 
L 220.8 262.4 
L 220.8 238.24 
" style="fill:#f3c0c0;"/>
    <path clip-path="url(#pa050dfdbc2)" d="M 245.6 238.24 
L 270.4 238.24 
L 270.4 262.4 
L 245.6 262.4 
L 245.6 238.24 
" style="fill:#f7eeee;"/>
    <path clip-path="url(#pa050dfdbc2)" d="M 270.4 238.24 
L 295.2 238.24 
L 295.2 262.4 
L 270.4 262.4 
L 270.4 238.24 
" style="fill:#db3b3c;"/>
    <path clip-path="url(#pa050dfdbc2)" d="M 295.2 238.24 
L 320 238.24 
L 320 262.4 
L 295.2 262.4 
L 295.2 238.24 
" style="fill:#c7d7e9;"/>
    <path clip-path="url(#pa050dfdbc2)" d="M 320 238.24 
L 344.8 238.24 
L 344.8 262.4 
L 320 262.4 
L 320 238.24 
" style="fill:#f9dfdf;"/>
    <path clip-path="url(#pa050dfdbc2)" d="M 344.8 238.24 
L 369.6 238.24 
L 369.6 262.4 
L 344.8 262.4 
L 344.8 238.24 
" style="fill:#f9dfdf;"/>
    <path clip-path="url(#pa050dfdbc2)" d="M 369.6 238.24 
L 394.4 238.24 
L 394.4 262.4 
L 369.6 262.4 
L 369.6 238.24 
" style="fill:#f9dfdf;"/>
    <path clip-path="url(#pa050dfdbc2)" d="M 394.4 238.24 
L 419.2 238.24 
L 419.2 262.4 
L 394.4 262.4 
L 394.4 238.24 
" style="fill:#f7d3d3;"/>
    <path clip-path="url(#pa050dfdbc2)" d="M 419.2 238.24 
L 444 238.24 
L 444 262.4 
L 419.2 262.4 
L 419.2 238.24 
" style="fill:#f6d0d0;"/>
    <path clip-path="url(#pa050dfdbc2)" d="M 444 238.24 
L 468.8 238.24 
L 468.8 262.4 
L 444 262.4 
L 444 238.24 
" style="fill:#f3c0c0;"/>
    <path clip-path="url(#pa050dfdbc2)" d="M 468.8 238.24 
L 493.6 238.24 
L 493.6 262.4 
L 468.8 262.4 
L 468.8 238.24 
" style="fill:#f7eeee;"/>
    <path clip-path="url(#pa050dfdbc2)" d="M 493.6 238.24 
L 518.4 238.24 
L 518.4 262.4 
L 493.6 262.4 
L 493.6 238.24 
" style="fill:#db3b3c;"/>
    <path clip-path="url(#pa050dfdbc2)" d="M 72 262.4 
L 96.8 262.4 
L 96.8 286.56 
L 72 286.56 
L 72 262.4 
" style="fill:#f3c0c0;"/>
    <path clip-path="url(#pa050dfdbc2)" d="M 96.8 262.4 
L 121.6 262.4 
L 121.6 286.56 
L 96.8 286.56 
L 96.8 262.4 
" style="fill:#e0e9f3;"/>
    <path clip-path="url(#pa050dfdbc2)" d="M 121.6 262.4 
L 146.4 262.4 
L 146.4 286.56 
L 121.6 286.56 
L 121.6 262.4 
" style="fill:#f3bebe;"/>
    <path clip-path="url(#pa050dfdbc2)" d="M 146.4 262.4 
L 171.2 262.4 
L 171.2 286.56 
L 146.4 286.56 
L 146.4 262.4 
" style="fill:#9ab8d8;"/>
    <path clip-path="url(#pa050dfdbc2)" d="M 171.2 262.4 
L 196 262.4 
L 196 286.56 
L 171.2 286.56 
L 171.2 262.4 
" style="fill:#f6cfcf;"/>
    <path clip-path="url(#pa050dfdbc2)" d="M 196 262.4 
L 220.8 262.4 
L 220.8 286.56 
L 196 286.56 
L 196 262.4 
" style="fill:#f5c9ca;"/>
    <path clip-path="url(#pa050dfdbc2)" d="M 220.8 262.4 
L 245.6 262.4 
L 245.6 286.56 
L 220.8 286.56 
L 220.8 262.4 
" style="fill:#ed9d9d;"/>
    <path clip-path="url(#pa050dfdbc2)" d="M 245.6 262.4 
L 270.4 262.4 
L 270.4 286.56 
L 245.6 286.56 
L 245.6 262.4 
" style="fill:#db3b3c;"/>
    <path clip-path="url(#pa050dfdbc2)" d="M 270.4 262.4 
L 295.2 262.4 
L 295.2 286.56 
L 270.4 286.56 
L 270.4 262.4 
" style="fill:#f7eeee;"/>
    <path clip-path="url(#pa050dfdbc2)" d="M 295.2 262.4 
L 320 262.4 
L 320 286.56 
L 295.2 286.56 
L 295.2 262.4 
" style="fill:#f3c0c0;"/>
    <path clip-path="url(#pa050dfdbc2)" d="M 320 262.4 
L 344.8 262.4 
L 344.8 286.56 
L 320 286.56 
L 320 262.4 
" style="fill:#e0e9f3;"/>
    <path clip-path="url(#pa050dfdbc2)" d="M 344.8 262.4 
L 369.6 262.4 
L 369.6 286.56 
L 344.8 286.56 
L 344.8 262.4 
" style="fill:#f3bebe;"/>
    <path clip-path="url(#pa050dfdbc2)" d="M 369.6 262.4 
L 394.4 262.4 
L 394.4 286.56 
L 369.6 286.56 
L 369.6 262.4 
" style="fill:#9ab8d8;"/>
    <path clip-path="url(#pa050dfdbc2)" d="M 394.4 262.4 
L 419.2 262.4 
L 419.2 286.56 
L 394.4 286.56 
L 394.4 262.4 
" style="fill:#f6cfcf;"/>
    <path clip-path="url(#pa050dfdbc2)" d="M 419.2 262.4 
L 444 262.4 
L 444 286.56 
L 419.2 286.56 
L 419.2 262.4 
" style="fill:#f5c9ca;"/>
    <path clip-path="url(#pa050dfdbc2)" d="M 444 262.4 
L 468.8 262.4 
L 468.8 286.56 
L 444 286.56 
L 444 262.4 
" style="fill:#ed9d9d;"/>
    <path clip-path="url(#pa050dfdbc2)" d="M 468.8 262.4 
L 493.6 262.4 
L 493.6 286.56 
L 468.8 286.56 
L 468.8 262.4 
" style="fill:#db3b3c;"/>
    <path clip-path="url(#pa050dfdbc2)" d="M 493.6 262.4 
L 518.4 262.4 
L 518.4 286.56 
L 493.6 286.56 
L 493.6 262.4 
" style="fill:#f7eeee;"/>
    <path clip-path="url(#pa050dfdbc2)" d="M 72 286.56 
L 96.8 286.56 
L 96.8 310.72 
L 72 310.72 
L 72 286.56 
" style="fill:#f7eeee;"/>
    <path clip-path="url(#pa050dfdbc2)" d="M 96.8 286.56 
L 121.6 286.56 
L 121.6 310.72 
L 96.8 310.72 
L 96.8 286.56 
" style="fill:#eea4a4;"/>
    <path clip-path="url(#pa050dfdbc2)" d="M 121.6 286.56 
L 146.4 286.56 
L 146.4 310.72 
L 121.6 310.72 
L 121.6 286.56 
" style="fill:#f1b3b3;"/>
    <path clip-path="url(#pa050dfdbc2)" d="M 146.4 286.56 
L 171.2 286.56 
L 171.2 310.72 
L 146.4 310.72 
L 146.4 286.56 
" style="fill:#efa8a8;"/>
    <path clip-path="url(#pa050dfdbc2)" d="M 171.2 286.56 
L 196 286.56 
L 196 310.72 
L 171.2 310.72 
L 171.2 286.56 
" style="fill:#e9f0f7;"/>
    <path clip-path="url(#pa050dfdbc2)" d="M 196 286.56 
L 220.8 286.56 
L 220.8 310.72 
L 196 310.72 
L 196 286.56 
" style="fill:#f4c5c5;"/>
    <path clip-path="url(#pa050dfdbc2)" d="M 220.8 286.56 
L 245.6 286.56 
L 245.6 310.72 
L 220.8 310.72 
L 220.8 286.56 
" style="fill:#b9cde4;"/>
    <path clip-path="url(#pa050dfdbc2)" d="M 245.6 286.56 
L 270.4 286.56 
L 270.4 310.72 
L 245.6 310.72 
L 245.6 286.56 
" style="fill:#c7d7e9;"/>
    <path clip-path="url(#pa050dfdbc2)" d="M 270.4 286.56 
L 295.2 286.56 
L 295.2 310.72 
L 270.4 310.72 
L 270.4 286.56 
" style="fill:#f3c0c0;"/>
    <path clip-path="url(#pa050dfdbc2)" d="M 295.2 286.56 
L 320 286.56 
L 320 310.72 
L 295.2 310.72 
L 295.2 286.56 
" style="fill:#f7eeee;"/>
    <path clip-path="url(#pa050dfdbc2)" d="M 320 286.56 
L 344.8 286.56 
L 344.8 310.72 
L 320 310.72 
L 320 286.56 
" style="fill:#eea4a4;"/>
    <path clip-path="url(#pa050dfdbc2)" d="M 344.8 286.56 
L 369.6 286.56 
L 369.6 310.72 
L 344.8 310.72 
L 344.8 286.56 
" style="fill:#f1b3b3;"/>
    <path clip-path="url(#pa050dfdbc2)" d="M 369.6 286.56 
L 394.4 286.56 
L 394.4 310.72 
L 369.6 310.72 
L 369.6 286.56 
" style="fill:#efa8a8;"/>
    <path clip-path="url(#pa050dfdbc2)" d="M 394.4 286.56 
L 419.2 286.56 
L 419.2 310.72 
L 394.4 310.72 
L 394.4 286.56 
" style="fill:#e9f0f7;"/>
    <path clip-path="url(#pa050dfdbc2)" d="M 419.2 286.56 
L 444 286.56 
L 444 310.72 
L 419.2 310.72 
L 419.2 286.56 
" style="fill:#f4c5c5;"/>
    <path clip-path="url(#pa050dfdbc2)" d="M 444 286.56 
L 468.8 286.56 
L 468.8 310.72 
L 444 310.72 
L 444 286.56 
" style="fill:#b9cde4;"/>
    <path clip-path="url(#pa050dfdbc2)" d="M 468.8 286.56 
L 493.6 286.56 
L 493.6 310.72 
L 468.8 310.72 
L 468.8 286.56 
" style="fill:#c7d7e9;"/>
    <path clip-path="url(#pa050dfdbc2)" d="M 493.6 286.56 
L 518.4 286.56 
L 518.4 310.72 
L 493.6 310.72 
L 493.6 286.56 
" style="fill:#f3c0c0;"/>
    <path clip-path="url(#pa050dfdbc2)" d="M 72 310.72 
L 96.8 310.72 
L 96.8 334.88 
L 72 334.88 
L 72 310.72 
" style="fill:#eea4a4;"/>
    <path clip-path="url(#pa050dfdbc2)" d="M 96.8 310.72 
L 121.6 310.72 
L 121.6 334.88 
L 96.8 334.88 
L 96.8 310.72 
" style="fill:#f7eeee;"/>
    <path clip-path="url(#pa050dfdbc2)" d="M 121.6 310.72 
L 146.4 310.72 
L 146.4 334.88 
L 121.6 334.88 
L 121.6 310.72 
" style="fill:#e4696a;"/>
    <path clip-path="url(#pa050dfdbc2)" d="M 146.4 310.72 
L 171.2 310.72 
L 171.2 334.88 
L 146.4 334.88 
L 146.4 310.72 
" style="fill:#ec9696;"/>
    <path clip-path="url(#pa050dfdbc2)" d="M 171.2 310.72 
L 196 310.72 
L 196 334.88 
L 171.2 334.88 
L 171.2 310.72 
" style="fill:#d4e1ef;"/>
    <path clip-path="url(#pa050dfdbc2)" d="M 196 310.72 
L 220.8 310.72 
L 220.8 334.88 
L 196 334.88 
L 196 310.72 
" style="fill:#fae6e6;"/>
    <path clip-path="url(#pa050dfdbc2)" d="M 220.8 310.72 
L 245.6 310.72 
L 245.6 334.88 
L 220.8 334.88 
L 220.8 310.72 
" style="fill:#f2b9ba;"/>
    <path clip-path="url(#pa050dfdbc2)" d="M 245.6 310.72 
L 270.4 310.72 
L 270.4 334.88 
L 245.6 334.88 
L 245.6 310.72 
" style="fill:#f9dfdf;"/>
    <path clip-path="url(#pa050dfdbc2)" d="M 270.4 310.72 
L 295.2 310.72 
L 295.2 334.88 
L 270.4 334.88 
L 270.4 310.72 
" style="fill:#e0e9f3;"/>
    <path clip-path="url(#pa050dfdbc2)" d="M 295.2 310.72 
L 320 310.72 
L 320 334.88 
L 295.2 334.88 
L 295.2 310.72 
" style="fill:#eea4a4;"/>
    <path clip-path="url(#pa050dfdbc2)" d="M 320 310.72 
L 344.8 310.72 
L 344.8 334.88 
L 320 334.88 
L 320 310.72 
" style="fill:#f7eeee;"/>
    <path clip-path="url(#pa050dfdbc2)" d="M 344.8 310.72 
L 369.6 310.72 
L 369.6 334.88 
L 344.8 334.88 
L 344.8 310.72 
" style="fill:#e4696a;"/>
    <path clip-path="url(#pa050dfdbc2)" d="M 369.6 310.72 
L 394.4 310.72 
L 394.4 334.88 
L 369.6 334.88 
L 369.6 310.72 
" style="fill:#ec9696;"/>
    <path clip-path="url(#pa050dfdbc2)" d="M 394.4 310.72 
L 419.2 310.72 
L 419.2 334.88 
L 394.4 334.88 
L 394.4 310.72 
" style="fill:#d4e1ef;"/>
    <path clip-path="url(#pa050dfdbc2)" d="M 419.2 310.72 
L 444 310.72 
L 444 334.88 
L 419.2 334.88 
L 419.2 310.72 
" style="fill:#fae6e6;"/>
    <path clip-path="url(#pa050dfdbc2)" d="M 444 310.72 
L 468.8 310.72 
L 468.8 334.88 
L 444 334.88 
L 444 310.72 
" style="fill:#f2b9ba;"/>
    <path clip-path="url(#pa050dfdbc2)" d="M 468.8 310.72 
L 493.6 310.72 
L 493.6 334.88 
L 468.8 334.88 
L 468.8 310.72 
" style="fill:#f9dfdf;"/>
    <path clip-path="url(#pa050dfdbc2)" d="M 493.6 310.72 
L 518.4 310.72 
L 518.4 334.88 
L 493.6 334.88 
L 493.6 310.72 
" style="fill:#e0e9f3;"/>
    <path clip-path="url(#pa050dfdbc2)" d="M 72 334.88 
L 96.8 334.88 
L 96.8 359.04 
L 72 359.04 
L 72 334.88 
" style="fill:#f1b3b3;"/>
    <path clip-path="url(#pa050dfdbc2)" d="M 96.8 334.88 
L 121.6 334.88 
L 121.6 359.04 
L 96.8 359.04 
L 96.8 334.88 
" style="fill:#e4696a;"/>
    <path clip-path="url(#pa050dfdbc2)" d="M 121.6 334.88 
L 146.4 334.88 
L 146.4 359.04 
L 121.6 359.04 
L 121.6 334.88 
" style="fill:#f7eeee;"/>
    <path clip-path="url(#pa050dfdbc2)" d="M 146.4 334.88 
L 171.2 334.88 
L 171.2 359.04 
L 146.4 359.04 
L 146.4 334.88 
" style="fill:#f1b3b3;"/>
    <path clip-path="url(#pa050dfdbc2)" d="M 171.2 334.88 
L 196 334.88 
L 196 359.04 
L 171.2 359.04 
L 171.2 334.88 
" style="fill:#f3c0c0;"/>
    <path clip-path="url(#pa050dfdbc2)" d="M 196 334.88 
L 220.8 334.88 
L 220.8 359.04 
L 196 359.04 
L 196 334.88 
" style="fill:#f7d3d3;"/>
    <path clip-path="url(#pa050dfdbc2)" d="M 220.8 334.88 
L 245.6 334.88 
L 245.6 359.04 
L 220.8 359.04 
L 220.8 334.88 
" style="fill:#d5e2ef;"/>
    <path clip-path="url(#pa050dfdbc2)" d="M 245.6 334.88 
L 270.4 334.88 
L 270.4 359.04 
L 245.6 359.04 
L 245.6 334.88 
" style="fill:#f9dfdf;"/>
    <path clip-path="url(#pa050dfdbc2)" d="M 270.4 334.88 
L 295.2 334.88 
L 295.2 359.04 
L 270.4 359.04 
L 270.4 334.88 
" style="fill:#f3bebe;"/>
    <path clip-path="url(#pa050dfdbc2)" d="M 295.2 334.88 
L 320 334.88 
L 320 359.04 
L 295.2 359.04 
L 295.2 334.88 
" style="fill:#f1b3b3;"/>
    <path clip-path="url(#pa050dfdbc2)" d="M 320 334.88 
L 344.8 334.88 
L 344.8 359.04 
L 320 359.04 
L 320 334.88 
" style="fill:#e4696a;"/>
    <path clip-path="url(#pa050dfdbc2)" d="M 344.8 334.88 
L 369.6 334.88 
L 369.6 359.04 
L 344.8 359.04 
L 344.8 334.88 
" style="fill:#f7eeee;"/>
    <path clip-path="url(#pa050dfdbc2)" d="M 369.6 334.88 
L 394.4 334.88 
L 394.4 359.04 
L 369.6 359.04 
L 369.6 334.88 
" style="fill:#f1b3b3;"/>
    <path clip-path="url(#pa050dfdbc2)" d="M 394.4 334.88 
L 419.2 334.88 
L 419.2 359.04 
L 394.4 359.04 
L 394.4 334.88 
" style="fill:#f3c0c0;"/>
    <path clip-path="url(#pa050dfdbc2)" d="M 419.2 334.88 
L 444 334.88 
L 444 359.04 
L 419.2 359.04 
L 419.2 334.88 
" style="fill:#f7d3d3;"/>
    <path clip-path="url(#pa050dfdbc2)" d="M 444 334.88 
L 468.8 334.88 
L 468.8 359.04 
L 444 359.04 
L 444 334.88 
" style="fill:#d5e2ef;"/>
    <path clip-path="url(#pa050dfdbc2)" d="M 468.8 334.88 
L 493.6 334.88 
L 493.6 359.04 
L 468.8 359.04 
L 468.8 334.88 
" style="fill:#f9dfdf;"/>
    <path clip-path="url(#pa050dfdbc2)" d="M 493.6 334.88 
L 518.4 334.88 
L 518.4 359.04 
L 493.6 359.04 
L 493.6 334.88 
" style="fill:#f3bebe;"/>
    <path clip-path="url(#pa050dfdbc2)" d="M 72 359.04 
L 96.8 359.04 
L 96.8 383.2 
L 72 383.2 
L 72 359.04 
" style="fill:#efa8a8;"/>
    <path clip-path="url(#pa050dfdbc2)" d="M 96.8 359.04 
L 121.6 359.04 
L 121.6 383.2 
L 96.8 383.2 
L 96.8 359.04 
" style="fill:#ec9696;"/>
    <path clip-path="url(#pa050dfdbc2)" d="M 121.6 359.04 
L 146.4 359.04 
L 146.4 383.2 
L 121.6 383.2 
L 121.6 359.04 
" style="fill:#f1b3b3;"/>
    <path clip-path="url(#pa050dfdbc2)" d="M 146.4 359.04 
L 171.2 359.04 
L 171.2 383.2 
L 146.4 383.2 
L 146.4 359.04 
" style="fill:#f7eeee;"/>
    <path clip-path="url(#pa050dfdbc2)" d="M 171.2 359.04 
L 196 359.04 
L 196 383.2 
L 171.2 383.2 
L 171.2 359.04 
" style="fill:#e98585;"/>
    <path clip-path="url(#pa050dfdbc2)" d="M 196 359.04 
L 220.8 359.04 
L 220.8 383.2 
L 196 383.2 
L 196 359.04 
" style="fill:#f8dada;"/>
    <path clip-path="url(#pa050dfdbc2)" d="M 220.8 359.04 
L 245.6 359.04 
L 245.6 383.2 
L 220.8 383.2 
L 220.8 359.04 
" style="fill:#f6cdce;"/>
    <path clip-path="url(#pa050dfdbc2)" d="M 245.6 359.04 
L 270.4 359.04 
L 270.4 383.2 
L 245.6 383.2 
L 245.6 359.04 
" style="fill:#f9dfdf;"/>
    <path clip-path="url(#pa050dfdbc2)" d="M 270.4 359.04 
L 295.2 359.04 
L 295.2 383.2 
L 270.4 383.2 
L 270.4 359.04 
" style="fill:#9ab8d8;"/>
    <path clip-path="url(#pa050dfdbc2)" d="M 295.2 359.04 
L 320 359.04 
L 320 383.2 
L 295.2 383.2 
L 295.2 359.04 
" style="fill:#efa8a8;"/>
    <path clip-path="url(#pa050dfdbc2)" d="M 320 359.04 
L 344.8 359.04 
L 344.8 383.2 
L 320 383.2 
L 320 359.04 
" style="fill:#ec9696;"/>
    <path clip-path="url(#pa050dfdbc2)" d="M 344.8 359.04 
L 369.6 359.04 
L 369.6 383.2 
L 344.8 383.2 
L 344.8 359.04 
" style="fill:#f1b3b3;"/>
    <path clip-path="url(#pa050dfdbc2)" d="M 369.6 359.04 
L 394.4 359.04 
L 394.4 383.2 
L 369.6 383.2 
L 369.6 359.04 
" style="fill:#f7eeee;"/>
    <path clip-path="url(#pa050dfdbc2)" d="M 394.4 359.04 
L 419.2 359.04 
L 419.2 383.2 
L 394.4 383.2 
L 394.4 359.04 
" style="fill:#e98585;"/>
    <path clip-path="url(#pa050dfdbc2)" d="M 419.2 359.04 
L 444 359.04 
L 444 383.2 
L 419.2 383.2 
L 419.2 359.04 
" style="fill:#f8dada;"/>
    <path clip-path="url(#pa050dfdbc2)" d="M 444 359.04 
L 468.8 359.04 
L 468.8 383.2 
L 444 383.2 
L 444 359.04 
" style="fill:#f6cdce;"/>
    <path clip-path="url(#pa050dfdbc2)" d="M 468.8 359.04 
L 493.6 359.04 
L 493.6 383.2 
L 468.8 383.2 
L 468.8 359.04 
" style="fill:#f9dfdf;"/>
    <path clip-path="url(#pa050dfdbc2)" d="M 493.6 359.04 
L 518.4 359.04 
L 518.4 383.2 
L 493.6 383.2 
L 493.6 359.04 
" style="fill:#9ab8d8;"/>
    <path clip-path="url(#pa050dfdbc2)" d="M 72 383.2 
L 96.8 383.2 
L 96.8 407.36 
L 72 407.36 
L 72 383.2 
" style="fill:#e9f0f7;"/>
    <path clip-path="url(#pa050dfdbc2)" d="M 96.8 383.2 
L 121.6 383.2 
L 121.6 407.36 
L 96.8 407.36 
L 96.8 383.2 
" style="fill:#d4e1ef;"/>
    <path clip-path="url(#pa050dfdbc2)" d="M 121.6 383.2 
L 146.4 383.2 
L 146.4 407.36 
L 121.6 407.36 
L 121.6 383.2 
" style="fill:#f3c0c0;"/>
    <path clip-path="url(#pa050dfdbc2)" d="M 146.4 383.2 
L 171.2 383.2 
L 171.2 407.36 
L 146.4 407.36 
L 146.4 383.2 
" style="fill:#e98585;"/>
    <path clip-path="url(#pa050dfdbc2)" d="M 171.2 383.2 
L 196 383.2 
L 196 407.36 
L 171.2 407.36 
L 171.2 383.2 
" style="fill:#f7eeee;"/>
    <path clip-path="url(#pa050dfdbc2)" d="M 196 383.2 
L 220.8 383.2 
L 220.8 407.36 
L 196 407.36 
L 196 383.2 
" style="fill:#f2b5b6;"/>
    <path clip-path="url(#pa050dfdbc2)" d="M 220.8 383.2 
L 245.6 383.2 
L 245.6 407.36 
L 220.8 407.36 
L 220.8 383.2 
" style="fill:#ed9e9f;"/>
    <path clip-path="url(#pa050dfdbc2)" d="M 245.6 383.2 
L 270.4 383.2 
L 270.4 407.36 
L 245.6 407.36 
L 245.6 383.2 
" style="fill:#f7d3d3;"/>
    <path clip-path="url(#pa050dfdbc2)" d="M 270.4 383.2 
L 295.2 383.2 
L 295.2 407.36 
L 270.4 407.36 
L 270.4 383.2 
" style="fill:#f6cfcf;"/>
    <path clip-path="url(#pa050dfdbc2)" d="M 295.2 383.2 
L 320 383.2 
L 320 407.36 
L 295.2 407.36 
L 295.2 383.2 
" style="fill:#e9f0f7;"/>
    <path clip-path="url(#pa050dfdbc2)" d="M 320 383.2 
L 344.8 383.2 
L 344.8 407.36 
L 320 407.36 
L 320 383.2 
" style="fill:#d4e1ef;"/>
    <path clip-path="url(#pa050dfdbc2)" d="M 344.8 383.2 
L 369.6 383.2 
L 369.6 407.36 
L 344.8 407.36 
L 344.8 383.2 
" style="fill:#f3c0c0;"/>
    <path clip-path="url(#pa050dfdbc2)" d="M 369.6 383.2 
L 394.4 383.2 
L 394.4 407.36 
L 369.6 407.36 
L 369.6 383.2 
" style="fill:#e98585;"/>
    <path clip-path="url(#pa050dfdbc2)" d="M 394.4 383.2 
L 419.2 383.2 
L 419.2 407.36 
L 394.4 407.36 
L 394.4 383.2 
" style="fill:#f7eeee;"/>
    <path clip-path="url(#pa050dfdbc2)" d="M 419.2 383.2 
L 444 383.2 
L 444 407.36 
L 419.2 407.36 
L 419.2 383.2 
" style="fill:#f2b5b6;"/>
    <path clip-path="url(#pa050dfdbc2)" d="M 444 383.2 
L 468.8 383.2 
L 468.8 407.36 
L 444 407.36 
L 444 383.2 
" style="fill:#ed9e9f;"/>
    <path clip-path="url(#pa050dfdbc2)" d="M 468.8 383.2 
L 493.6 383.2 
L 493.6 407.36 
L 468.8 407.36 
L 468.8 383.2 
" style="fill:#f7d3d3;"/>
    <path clip-path="url(#pa050dfdbc2)" d="M 493.6 383.2 
L 518.4 383.2 
L 518.4 407.36 
L 493.6 407.36 
L 493.6 383.2 
" style="fill:#f6cfcf;"/>
    <path clip-path="url(#pa050dfdbc2)" d="M 72 407.36 
L 96.8 407.36 
L 96.8 431.52 
L 72 431.52 
L 72 407.36 
" style="fill:#f4c5c5;"/>
    <path clip-path="url(#pa050dfdbc2)" d="M 96.8 407.36 
L 121.6 407.36 
L 121.6 431.52 
L 96.8 431.52 
L 96.8 407.36 
" style="fill:#fae6e6;"/>
    <path clip-path="url(#pa050dfdbc2)" d="M 121.6 407.36 
L 146.4 407.36 
L 146.4 431.52 
L 121.6 431.52 
L 121.6 407.36 
" style="fill:#f7d3d3;"/>
    <path clip-path="url(#pa050dfdbc2)" d="M 146.4 407.36 
L 171.2 407.36 
L 171.2 431.52 
L 146.4 431.52 
L 146.4 407.36 
" style="fill:#f8dada;"/>
    <path clip-path="url(#pa050dfdbc2)" d="M 171.2 407.36 
L 196 407.36 
L 196 431.52 
L 171.2 431.52 
L 171.2 407.36 
" style="fill:#f2b5b6;"/>
    <path clip-path="url(#pa050dfdbc2)" d="M 196 407.36 
L 220.8 407.36 
L 220.8 431.52 
L 196 431.52 
L 196 407.36 
" style="fill:#f7eeee;"/>
    <path clip-path="url(#pa050dfdbc2)" d="M 220.8 407.36 
L 245.6 407.36 
L 245.6 431.52 
L 220.8 431.52 
L 220.8 407.36 
" style="fill:#e88283;"/>
    <path clip-path="url(#pa050dfdbc2)" d="M 245.6 407.36 
L 270.4 407.36 
L 270.4 431.52 
L 245.6 431.52 
L 245.6 407.36 
" style="fill:#f6d0d0;"/>
    <path clip-path="url(#pa050dfdbc2)" d="M 270.4 407.36 
L 295.2 407.36 
L 295.2 431.52 
L 270.4 431.52 
L 270.4 407.36 
" style="fill:#f5c9ca;"/>
    <path clip-path="url(#pa050dfdbc2)" d="M 295.2 407.36 
L 320 407.36 
L 320 431.52 
L 295.2 431.52 
L 295.2 407.36 
" style="fill:#f4c5c5;"/>
    <path clip-path="url(#pa050dfdbc2)" d="M 320 407.36 
L 344.8 407.36 
L 344.8 431.52 
L 320 431.52 
L 320 407.36 
" style="fill:#fae6e6;"/>
    <path clip-path="url(#pa050dfdbc2)" d="M 344.8 407.36 
L 369.6 407.36 
L 369.6 431.52 
L 344.8 431.52 
L 344.8 407.36 
" style="fill:#f7d3d3;"/>
    <path clip-path="url(#pa050dfdbc2)" d="M 369.6 407.36 
L 394.4 407.36 
L 394.4 431.52 
L 369.6 431.52 
L 369.6 407.36 
" style="fill:#f8dada;"/>
    <path clip-path="url(#pa050dfdbc2)" d="M 394.4 407.36 
L 419.2 407.36 
L 419.2 431.52 
L 394.4 431.52 
L 394.4 407.36 
" style="fill:#f2b5b6;"/>
    <path clip-path="url(#pa050dfdbc2)" d="M 419.2 407.36 
L 444 407.36 
L 444 431.52 
L 419.2 431.52 
L 419.2 407.36 
" style="fill:#f7eeee;"/>
    <path clip-path="url(#pa050dfdbc2)" d="M 444 407.36 
L 468.8 407.36 
L 468.8 431.52 
L 444 431.52 
L 444 407.36 
" style="fill:#e88283;"/>
    <path clip-path="url(#pa050dfdbc2)" d="M 468.8 407.36 
L 493.6 407.36 
L 493.6 431.52 
L 468.8 431.52 
L 468.8 407.36 
" style="fill:#f6d0d0;"/>
    <path clip-path="url(#pa050dfdbc2)" d="M 493.6 407.36 
L 518.4 407.36 
L 518.4 431.52 
L 493.6 431.52 
L 493.6 407.36 
" style="fill:#f5c9ca;"/>
    <path clip-path="url(#pa050dfdbc2)" d="M 72 431.52 
L 96.8 431.52 
L 96.8 455.68 
L 72 455.68 
L 72 431.52 
" style="fill:#b9cde4;"/>
    <path clip-path="url(#pa050dfdbc2)" d="M 96.8 431.52 
L 121.6 431.52 
L 121.6 455.68 
L 96.8 455.68 
L 96.8 431.52 
" style="fill:#f2b9ba;"/>
    <path clip-path="url(#pa050dfdbc2)" d="M 121.6 431.52 
L 146.4 431.52 
L 146.4 455.68 
L 121.6 455.68 
L 121.6 431.52 
" style="fill:#d5e2ef;"/>
    <path clip-path="url(#pa050dfdbc2)" d="M 146.4 431.52 
L 171.2 431.52 
L 171.2 455.68 
L 146.4 455.68 
L 146.4 431.52 
" style="fill:#f6cdce;"/>
    <path clip-path="url(#pa050dfdbc2)" d="M 171.2 431.52 
L 196 431.52 
L 196 455.68 
L 171.2 455.68 
L 171.2 431.52 
" style="fill:#ed9e9f;"/>
    <path clip-path="url(#pa050dfdbc2)" d="M 196 431.52 
L 220.8 431.52 
L 220.8 455.68 
L 196 455.68 
L 196 431.52 
" style="fill:#e88283;"/>
    <path clip-path="url(#pa050dfdbc2)" d="M 220.8 431.52 
L 245.6 431.52 
L 245.6 455.68 
L 220.8 455.68 
L 220.8 431.52 
" style="fill:#f7eeee;"/>
    <path clip-path="url(#pa050dfdbc2)" d="M 245.6 431.52 
L 270.4 431.52 
L 270.4 455.68 
L 245.6 455.68 
L 245.6 431.52 
" style="fill:#f3c0c0;"/>
    <path clip-path="url(#pa050dfdbc2)" d="M 270.4 431.52 
L 295.2 431.52 
L 295.2 455.68 
L 270.4 455.68 
L 270.4 431.52 
" style="fill:#ed9d9d;"/>
    <path clip-path="url(#pa050dfdbc2)" d="M 295.2 431.52 
L 320 431.52 
L 320 455.68 
L 295.2 455.68 
L 295.2 431.52 
" style="fill:#b9cde4;"/>
    <path clip-path="url(#pa050dfdbc2)" d="M 320 431.52 
L 344.8 431.52 
L 344.8 455.68 
L 320 455.68 
L 320 431.52 
" style="fill:#f2b9ba;"/>
    <path clip-path="url(#pa050dfdbc2)" d="M 344.8 431.52 
L 369.6 431.52 
L 369.6 455.68 
L 344.8 455.68 
L 344.8 431.52 
" style="fill:#d5e2ef;"/>
    <path clip-path="url(#pa050dfdbc2)" d="M 369.6 431.52 
L 394.4 431.52 
L 394.4 455.68 
L 369.6 455.68 
L 369.6 431.52 
" style="fill:#f6cdce;"/>
    <path clip-path="url(#pa050dfdbc2)" d="M 394.4 431.52 
L 419.2 431.52 
L 419.2 455.68 
L 394.4 455.68 
L 394.4 431.52 
" style="fill:#ed9e9f;"/>
    <path clip-path="url(#pa050dfdbc2)" d="M 419.2 431.52 
L 444 431.52 
L 444 455.68 
L 419.2 455.68 
L 419.2 431.52 
" style="fill:#e88283;"/>
    <path clip-path="url(#pa050dfdbc2)" d="M 444 431.52 
L 468.8 431.52 
L 468.8 455.68 
L 444 455.68 
L 444 431.52 
" style="fill:#f7eeee;"/>
    <path clip-path="url(#pa050dfdbc2)" d="M 468.8 431.52 
L 493.6 431.52 
L 493.6 455.68 
L 468.8 455.68 
L 468.8 431.52 
" style="fill:#f3c0c0;"/>
    <path clip-path="url(#pa050dfdbc2)" d="M 493.6 431.52 
L 518.4 431.52 
L 518.4 455.68 
L 493.6 455.68 
L 493.6 431.52 
" style="fill:#ed9d9d;"/>
    <path clip-path="url(#pa050dfdbc2)" d="M 72 455.68 
L 96.8 455.68 
L 96.8 479.84 
L 72 479.84 
L 72 455.68 
" style="fill:#c7d7e9;"/>
    <path clip-path="url(#pa050dfdbc2)" d="M 96.8 455.68 
L 121.6 455.68 
L 121.6 479.84 
L 96.8 479.84 
L 96.8 455.68 
" style="fill:#f9dfdf;"/>
    <path clip-path="url(#pa050dfdbc2)" d="M 121.6 455.68 
L 146.4 455.68 
L 146.4 479.84 
L 121.6 479.84 
L 121.6 455.68 
" style="fill:#f9dfdf;"/>
    <path clip-path="url(#pa050dfdbc2)" d="M 146.4 455.68 
L 171.2 455.68 
L 171.2 479.84 
L 146.4 479.84 
L 146.4 455.68 
" style="fill:#f9dfdf;"/>
    <path clip-path="url(#pa050dfdbc2)" d="M 171.2 455.68 
L 196 455.68 
L 196 479.84 
L 171.2 479.84 
L 171.2 455.68 
" style="fill:#f7d3d3;"/>
    <path clip-path="url(#pa050dfdbc2)" d="M 196 455.68 
L 220.8 455.68 
L 220.8 479.84 
L 196 479.84 
L 196 455.68 
" style="fill:#f6d0d0;"/>
    <path clip-path="url(#pa050dfdbc2)" d="M 220.8 455.68 
L 245.6 455.68 
L 245.6 479.84 
L 220.8 479.84 
L 220.8 455.68 
" style="fill:#f3c0c0;"/>
    <path clip-path="url(#pa050dfdbc2)" d="M 245.6 455.68 
L 270.4 455.68 
L 270.4 479.84 
L 245.6 479.84 
L 245.6 455.68 
" style="fill:#f7eeee;"/>
    <path clip-path="url(#pa050dfdbc2)" d="M 270.4 455.68 
L 295.2 455.68 
L 295.2 479.84 
L 270.4 479.84 
L 270.4 455.68 
" style="fill:#db3b3c;"/>
    <path clip-path="url(#pa050dfdbc2)" d="M 295.2 455.68 
L 320 455.68 
L 320 479.84 
L 295.2 479.84 
L 295.2 455.68 
" style="fill:#c7d7e9;"/>
    <path clip-path="url(#pa050dfdbc2)" d="M 320 455.68 
L 344.8 455.68 
L 344.8 479.84 
L 320 479.84 
L 320 455.68 
" style="fill:#f9dfdf;"/>
    <path clip-path="url(#pa050dfdbc2)" d="M 344.8 455.68 
L 369.6 455.68 
L 369.6 479.84 
L 344.8 479.84 
L 344.8 455.68 
" style="fill:#f9dfdf;"/>
    <path clip-path="url(#pa050dfdbc2)" d="M 369.6 455.68 
L 394.4 455.68 
L 394.4 479.84 
L 369.6 479.84 
L 369.6 455.68 
" style="fill:#f9dfdf;"/>
    <path clip-path="url(#pa050dfdbc2)" d="M 394.4 455.68 
L 419.2 455.68 
L 419.2 479.84 
L 394.4 479.84 
L 394.4 455.68 
" style="fill:#f7d3d3;"/>
    <path clip-path="url(#pa050dfdbc2)" d="M 419.2 455.68 
L 444 455.68 
L 444 479.84 
L 419.2 479.84 
L 419.2 455.68 
" style="fill:#f6d0d0;"/>
    <path clip-path="url(#pa050dfdbc2)" d="M 444 455.68 
L 468.8 455.68 
L 468.8 479.84 
L 444 479.84 
L 444 455.68 
" style="fill:#f3c0c0;"/>
    <path clip-path="url(#pa050dfdbc2)" d="M 468.8 455.68 
L 493.6 455.68 
L 493.6 479.84 
L 468.8 479.84 
L 468.8 455.68 
" style="fill:#f7eeee;"/>
    <path clip-path="url(#pa050dfdbc2)" d="M 493.6 455.68 
L 518.4 455.68 
L 518.4 479.84 
L 493.6 479.84 
L 493.6 455.68 
" style="fill:#db3b3c;"/>
    <path clip-path="url(#pa050dfdbc2)" d="M 72 479.84 
L 96.8 479.84 
L 96.8 504 
L 72 504 
L 72 479.84 
" style="fill:#f3c0c0;"/>
    <path clip-path="url(#pa050dfdbc2)" d="M 96.8 479.84 
L 121.6 479.84 
L 121.6 504 
L 96.8 504 
L 96.8 479.84 
" style="fill:#e0e9f3;"/>
    <path clip-path="url(#pa050dfdbc2)" d="M 121.6 479.84 
L 146.4 479.84 
L 146.4 504 
L 121.6 504 
L 121.6 479.84 
" style="fill:#f3bebe;"/>
    <path clip-path="url(#pa050dfdbc2)" d="M 146.4 479.84 
L 171.2 479.84 
L 171.2 504 
L 146.4 504 
L 146.4 479.84 
" style="fill:#9ab8d8;"/>
    <path clip-path="url(#pa050dfdbc2)" d="M 171.2 479.84 
L 196 479.84 
L 196 504 
L 171.2 504 
L 171.2 479.84 
" style="fill:#f6cfcf;"/>
    <path clip-path="url(#pa050dfdbc2)" d="M 196 479.84 
L 220.8 479.84 
L 220.8 504 
L 196 504 
L 196 479.84 
" style="fill:#f5c9ca;"/>
    <path clip-path="url(#pa050dfdbc2)" d="M 220.8 479.84 
L 245.6 479.84 
L 245.6 504 
L 220.8 504 
L 220.8 479.84 
" style="fill:#ed9d9d;"/>
    <path clip-path="url(#pa050dfdbc2)" d="M 245.6 479.84 
L 270.4 479.84 
L 270.4 504 
L 245.6 504 
L 245.6 479.84 
" style="fill:#db3b3c;"/>
    <path clip-path="url(#pa050dfdbc2)" d="M 270.4 479.84 
L 295.2 479.84 
L 295.2 504 
L 270.4 504 
L 270.4 479.84 
" style="fill:#f7eeee;"/>
    <path clip-path="url(#pa050dfdbc2)" d="M 295.2 479.84 
L 320 479.84 
L 320 504 
L 295.2 504 
L 295.2 479.84 
" style="fill:#f3c0c0;"/>
    <path clip-path="url(#pa050dfdbc2)" d="M 320 479.84 
L 344.8 479.84 
L 344.8 504 
L 320 504 
L 320 479.84 
" style="fill:#e0e9f3;"/>
    <path clip-path="url(#pa050dfdbc2)" d="M 344.8 479.84 
L 369.6 479.84 
L 369.6 504 
L 344.8 504 
L 344.8 479.84 
" style="fill:#f3bebe;"/>
    <path clip-path="url(#pa050dfdbc2)" d="M 369.6 479.84 
L 394.4 479.84 
L 394.4 504 
L 369.6 504 
L 369.6 479.84 
" style="fill:#9ab8d8;"/>
    <path clip-path="url(#pa050dfdbc2)" d="M 394.4 479.84 
L 419.2 479.84 
L 419.2 504 
L 394.4 504 
L 394.4 479.84 
" style="fill:#f6cfcf;"/>
    <path clip-path="url(#pa050dfdbc2)" d="M 419.2 479.84 
L 444 479.84 
L 444 504 
L 419.2 504 
L 419.2 479.84 
" style="fill:#f5c9ca;"/>
    <path clip-path="url(#pa050dfdbc2)" d="M 444 479.84 
L 468.8 479.84 
L 468.8 504 
L 444 504 
L 444 479.84 
" style="fill:#ed9d9d;"/>
    <path clip-path="url(#pa050dfdbc2)" d="M 468.8 479.84 
L 493.6 479.84 
L 493.6 504 
L 468.8 504 
L 468.8 479.84 
" style="fill:#db3b3c;"/>
    <path clip-path="url(#pa050dfdbc2)" d="M 493.6 479.84 
L 518.4 479.84 
L 518.4 504 
L 493.6 504 
L 493.6 479.84 
" style="fill:#f7eeee;"/>
   </g>
   <g id="matplotlib.axis_1">
    <g id="xtick_1"/>
    <g id="xtick_2"/>
    <g id="xtick_3"/>
    <g id="xtick_4"/>
    <g id="xtick_5"/>
    <g id="xtick_6"/>
    <g id="xtick_7"/>
    <g id="xtick_8"/>
    <g id="xtick_9"/>
    <g id="xtick_10"/>
    <g id="xtick_11"/>
    <g id="xtick_12"/>
    <g id="xtick_13"/>
    <g id="xtick_14"/>
    <g id="xtick_15"/>
    <g id="xtick_16"/>
    <g id="xtick_17"/>
    <g id="xtick_18"/>
   </g>
   <g id="matplotlib.axis_2">
    <g id="ytick_1"/>
    <g id="ytick_2"/>
    <g id="ytick_3"/>
    <g id="ytick_4"/>
    <g id="ytick_5"/>
    <g id="ytick_6"/>
    <g id="ytick_7"/>
    <g id="ytick_8"/>
    <g id="ytick_9"/>
    <g id="ytick_10"/>
    <g id="ytick_11"/>
    <g id="ytick_12"/>
    <g id="ytick_13"/>
    <g id="ytick_14"/>
    <g id="ytick_15"/>
    <g id="ytick_16"/>
    <g id="ytick_17"/>
    <g id="ytick_18"/>
   </g>
  </g>
 </g>
 <defs>
  <clipPath id="pa050dfdbc2">
   <rect height="434.88" width="446.4" x="72" y="69.12"/>
  </clipPath>
 </defs>
</svg>
